<svg width="207" height="64" viewBox="0 0 207 64" fill="none" xmlns="http://www.w3.org/2000/svg">
<path d="M85.9126 21.1818V43H82.2585V21.1818H85.9126ZM89.4309 24.2713V21.1818H106.594V24.2713H99.818V43H96.1958V24.2713H89.4309ZM118.126 30.5994V33.5824H108.367V30.5994H118.126ZM122.483 43V21.1818H130.484C132.167 21.1818 133.573 21.4943 134.703 22.1193C135.832 22.7372 136.681 23.5859 137.249 24.6655C137.824 25.745 138.112 26.9666 138.112 28.3303C138.112 29.701 137.824 30.9261 137.249 32.0057C136.673 33.0852 135.818 33.9375 134.681 34.5625C133.545 35.1804 132.135 35.4893 130.452 35.4893H125.061V32.4531H130.026C131.048 32.4531 131.883 32.2756 132.529 31.9205C133.176 31.5653 133.651 31.0788 133.957 30.4609C134.262 29.8359 134.415 29.1257 134.415 28.3303C134.415 27.5348 134.262 26.8317 133.957 26.2209C133.651 25.603 133.172 25.1236 132.519 24.7827C131.872 24.4347 131.031 24.2607 129.994 24.2607H126.137V43H122.483ZM148.315 43.3303C146.745 43.3303 145.382 42.9787 144.224 42.2756C143.066 41.5653 142.168 40.5781 141.529 39.3139C140.897 38.0497 140.581 36.576 140.581 34.8928C140.581 33.1953 140.897 31.7109 141.529 30.4396C142.168 29.1683 143.066 28.1811 144.224 27.478C145.382 26.7749 146.745 26.4233 148.315 26.4233C149.885 26.4233 151.248 26.7749 152.406 27.478C153.564 28.1811 154.462 29.1683 155.101 30.4396C155.74 31.7109 156.06 33.1953 156.06 34.8928C156.06 36.576 155.74 38.0497 155.101 39.3139C154.462 40.5781 153.564 41.5653 152.406 42.2756C151.248 42.9787 149.885 43.3303 148.315 43.3303ZM148.336 40.4219C149.26 40.4219 150.027 40.1733 150.637 39.6761C151.255 39.1719 151.713 38.5007 152.012 37.6626C152.317 36.8246 152.47 35.8977 152.47 34.8821C152.47 33.8594 152.317 32.9254 152.012 32.0803C151.713 31.2351 151.255 30.5604 150.637 30.0561C150.027 29.5518 149.26 29.2997 148.336 29.2997C147.392 29.2997 146.61 29.5518 145.993 30.0561C145.382 30.5604 144.924 31.2351 144.618 32.0803C144.32 32.9254 144.171 33.8594 144.171 34.8821C144.171 35.8977 144.32 36.8246 144.618 37.6626C144.924 38.5007 145.382 39.1719 145.993 39.6761C146.61 40.1733 147.392 40.4219 148.336 40.4219ZM159.458 43V26.6364H162.889V29.2997H163.059C163.358 28.3906 163.876 27.6804 164.615 27.169C165.36 26.6506 166.206 26.3913 167.15 26.3913C167.363 26.3913 167.601 26.402 167.864 26.4233C168.134 26.4375 168.354 26.4588 168.525 26.4872V29.8111C168.375 29.7614 168.13 29.7152 167.789 29.6726C167.456 29.6229 167.125 29.598 166.799 29.598C166.067 29.598 165.417 29.7543 164.849 30.0668C164.281 30.3722 163.83 30.7983 163.496 31.3452C163.169 31.8849 163.006 32.5064 163.006 33.2095V43H159.458ZM180.012 26.6364V29.4276H170.818V26.6364H180.012ZM173.172 22.7159H176.73V38.1314C176.73 38.6925 176.812 39.1186 176.975 39.4098C177.146 39.701 177.369 39.8999 177.646 40.0064C177.931 40.1058 178.24 40.1555 178.573 40.1555C178.822 40.1555 179.042 40.1413 179.234 40.1129C179.433 40.0774 179.585 40.0455 179.692 40.017L180.31 42.8509C180.111 42.9219 179.83 42.9964 179.468 43.0746C179.106 43.1598 178.662 43.2095 178.137 43.2237C177.227 43.245 176.396 43.0959 175.644 42.7763C174.891 42.4567 174.291 41.9631 173.843 41.2955C173.396 40.6278 173.172 39.7898 173.172 38.7812V22.7159Z" fill="#FFEBA7"/>
<path d="M65.5 32C65.5 48.7807 51.2386 62.5 33.5 62.5C15.7614 62.5 1.5 48.7807 1.5 32C1.5 15.2193 15.7614 1.5 33.5 1.5C51.2386 1.5 65.5 15.2193 65.5 32Z" fill="#FFEBA7" stroke="black" stroke-width="3"/>
<path d="M60.8298 31.9016C60.8298 45.8317 48.6575 57.3057 33.4102 57.3057C18.1629 57.3057 5.99062 45.8317 5.99062 31.9016C5.99062 17.9716 18.1629 6.49756 33.4102 6.49756C48.6575 6.49756 60.8298 17.9716 60.8298 31.9016Z" fill="#1F2029" stroke="black" stroke-width="3"/>
<path d="M33.9474 56.3776L13.5839 47.8928L39.0354 32.2798L59.5717 41.2665L33.9474 56.3776Z" fill="#FFEBA7" stroke="black"/>
<path d="M12.8432 46.3948L11.8552 24.9882L37.2721 9.82861L38.3499 30.9854L12.8432 46.3948Z" fill="#FFEBA7" stroke="#FFEBA7" stroke-width="5"/>
<path d="M35.2962 12.9937L14.1903 26.1542L14.9986 43.1462L36.1045 29.9024L35.2962 12.9937Z" fill="#1F2029" stroke="black" stroke-width="5"/>
<path d="M24.4289 24.2387L17.0643 28.57L17.4236 35.3169L24.7882 31.2354V34.234L29.0094 31.9018V28.4867L33.3204 25.6547V20.9902L28.7399 23.7389V27.6538L24.7882 29.986L24.4289 24.2387Z" fill="#FFEBA7"/>
<path d="M51.8217 19.0743L44.008 14.9096L65.2936 9.82861L55.055 28.4865L51.8217 19.0743Z" fill="#FFEBA7" stroke="black" stroke-width="2"/>
</svg>
